<?xml version="1.0" encoding="UTF-8" standalone="no"?>
<!DOCTYPE svg PUBLIC "-//W3C//DTD SVG 1.1//EN"
 "http://www.w3.org/Graphics/SVG/1.1/DTD/svg11.dtd">
<!-- Generated by graphviz version 2.40.1 (20161225.0304)
 -->
<!-- Title: twoDegreesRelationshipsDiagram Pages: 1 -->
<svg width="522pt" height="333pt"
 viewBox="0.00 0.00 522.00 332.70" xmlns="http://www.w3.org/2000/svg" xmlns:xlink="http://www.w3.org/1999/xlink">
<g id="graph0" class="graph" transform="scale(1 1) rotate(0) translate(4 328.7)">
<title>twoDegreesRelationshipsDiagram</title>
<polygon fill="#ffffff" stroke="transparent" points="-4,4 -4,-328.7 518,-328.7 518,4 -4,4"/>
<text text-anchor="middle" x="72.4936" y="-7.3" font-family="Helvetica,sans-Serif" font-size="11.00" fill="#000000">Generated by SchemaSpy</text>
<!-- article -->
<g id="node1" class="node">
<title>article</title>
<g id="a_node1"><a xlink:href="../../tables/article.html" xlink:title="article" target="_top">
<polygon fill="#ffffff" stroke="transparent" points="145,-120.7 145,-320.7 351,-320.7 351,-120.7 145,-120.7"/>
<polygon fill="#f5f5f5" stroke="transparent" points="147,-295.7 147,-318.7 349,-318.7 349,-295.7 147,-295.7"/>
<polygon fill="none" stroke="#000000" points="147,-295.7 147,-318.7 349,-318.7 349,-295.7 147,-295.7"/>
<text text-anchor="start" x="152" y="-304.8" font-family="Helvetica,sans-Serif" font-weight="bold" font-size="11.00" fill="#000000">article</text>
<text text-anchor="start" x="314.0437" y="-303.8" font-family="Helvetica,sans-Serif" font-size="11.00" fill="#000000">[table]</text>
<polygon fill="none" stroke="#000000" points="147,-273.7 147,-295.7 238,-295.7 238,-273.7 147,-273.7"/>
<image xlink:href="../../images/primaryKeys.png" width="11px" height="12px" preserveAspectRatio="xMinYMin meet" x="152" y="-290.7"/>
<text text-anchor="start" x="167" y="-280.8" font-family="Helvetica,sans-Serif" font-size="11.00" fill="#000000">id</text>
<polygon fill="none" stroke="#000000" points="238,-273.7 238,-295.7 349,-295.7 349,-273.7 238,-273.7"/>
<text text-anchor="start" x="241" y="-281.4" font-family="Helvetica,sans-Serif" font-size="11.00" fill="#000000">int[10]</text>
<polygon fill="none" stroke="#000000" points="147,-251.7 147,-273.7 238,-273.7 238,-251.7 147,-251.7"/>
<text text-anchor="start" x="167" y="-258.8" font-family="Helvetica,sans-Serif" font-size="11.00" fill="#000000">titre</text>
<polygon fill="none" stroke="#000000" points="238,-251.7 238,-273.7 349,-273.7 349,-251.7 238,-251.7"/>
<text text-anchor="start" x="241" y="-259.4" font-family="Helvetica,sans-Serif" font-size="11.00" fill="#000000">varchar[200]</text>
<polygon fill="none" stroke="#000000" points="147,-229.7 147,-251.7 238,-251.7 238,-229.7 147,-229.7"/>
<text text-anchor="start" x="167" y="-236.8" font-family="Helvetica,sans-Serif" font-size="11.00" fill="#000000">contenu</text>
<polygon fill="none" stroke="#000000" points="238,-229.7 238,-251.7 349,-251.7 349,-229.7 238,-229.7"/>
<text text-anchor="start" x="240.6115" y="-237.4" font-family="Helvetica,sans-Serif" font-size="11.00" fill="#000000">longtext[2147483647]</text>
<polygon fill="none" stroke="#000000" points="147,-207.7 147,-229.7 238,-229.7 238,-207.7 147,-207.7"/>
<text text-anchor="start" x="167" y="-214.8" font-family="Helvetica,sans-Serif" font-size="11.00" fill="#000000">created_at</text>
<polygon fill="none" stroke="#000000" points="238,-207.7 238,-229.7 349,-229.7 349,-207.7 238,-207.7"/>
<text text-anchor="start" x="241" y="-215.4" font-family="Helvetica,sans-Serif" font-size="11.00" fill="#000000">datetime[19]</text>
<polygon fill="none" stroke="#000000" points="147,-185.7 147,-207.7 238,-207.7 238,-185.7 147,-185.7"/>
<text text-anchor="start" x="167" y="-192.8" font-family="Helvetica,sans-Serif" font-size="11.00" fill="#000000">slug</text>
<polygon fill="none" stroke="#000000" points="238,-185.7 238,-207.7 349,-207.7 349,-185.7 238,-185.7"/>
<text text-anchor="start" x="241" y="-193.4" font-family="Helvetica,sans-Serif" font-size="11.00" fill="#000000">varchar[255]</text>
<polygon fill="#ffffff" stroke="transparent" points="147,-163.7 147,-185.7 238,-185.7 238,-163.7 147,-163.7"/>
<polygon fill="none" stroke="#000000" points="147,-163.7 147,-185.7 238,-185.7 238,-163.7 147,-163.7"/>
<image xlink:href="../../images/foreignKeys.png" width="11px" height="12px" preserveAspectRatio="xMinYMin meet" x="152" y="-180.7"/>
<text text-anchor="start" x="167" y="-170.8" font-family="Helvetica,sans-Serif" font-size="11.00" fill="#000000">categorie_id</text>
<polygon fill="none" stroke="#000000" points="238,-163.7 238,-185.7 349,-185.7 349,-163.7 238,-163.7"/>
<text text-anchor="start" x="241" y="-171.4" font-family="Helvetica,sans-Serif" font-size="11.00" fill="#000000">int[10]</text>
<polygon fill="none" stroke="#000000" points="147,-141.7 147,-163.7 238,-163.7 238,-141.7 147,-141.7"/>
<text text-anchor="start" x="167" y="-148.8" font-family="Helvetica,sans-Serif" font-size="11.00" fill="#000000">publie</text>
<polygon fill="none" stroke="#000000" points="238,-141.7 238,-163.7 349,-163.7 349,-141.7 238,-141.7"/>
<text text-anchor="start" x="241" y="-149.4" font-family="Helvetica,sans-Serif" font-size="11.00" fill="#000000">bit[1]</text>
<polygon fill="#ffffff" stroke="transparent" points="147,-122.7 147,-141.7 181,-141.7 181,-122.7 147,-122.7"/>
<polygon fill="none" stroke="#000000" points="147,-122.7 147,-141.7 181,-141.7 181,-122.7 147,-122.7"/>
<text text-anchor="start" x="150" y="-128.8" font-family="Helvetica,sans-Serif" font-size="11.00" fill="#000000">&lt; 1</text>
<polygon fill="#ffffff" stroke="transparent" points="181,-122.7 181,-141.7 238,-141.7 238,-122.7 181,-122.7"/>
<polygon fill="none" stroke="#000000" points="181,-122.7 181,-141.7 238,-141.7 238,-122.7 181,-122.7"/>
<text text-anchor="start" x="196.4956" y="-128.8" font-family="Helvetica,sans-Serif" font-size="11.00" fill="#000000">57 rows</text>
<polygon fill="#ffffff" stroke="transparent" points="238,-122.7 238,-141.7 349,-141.7 349,-122.7 238,-122.7"/>
<polygon fill="none" stroke="#000000" points="238,-122.7 238,-141.7 349,-141.7 349,-122.7 238,-122.7"/>
<text text-anchor="start" x="330.4053" y="-128.8" font-family="Helvetica,sans-Serif" font-size="11.00" fill="#000000">1 &gt;</text>
<polygon fill="none" stroke="#000000" stroke-width="2" points="146,-121.7 146,-319.7 350,-319.7 350,-121.7 146,-121.7"/>
</a>
</g>
</g>
<!-- categorie -->
<g id="node2" class="node">
<title>categorie</title>
<g id="a_node2"><a xlink:href="../../tables/categorie.html" xlink:title="categorie" target="_top">
<polygon fill="#ffffff" stroke="transparent" points="8,-126.2 8,-209.2 96,-209.2 96,-126.2 8,-126.2"/>
<polygon fill="#f5f5f5" stroke="transparent" points="8,-185.7 8,-208.7 96,-208.7 96,-185.7 8,-185.7"/>
<polygon fill="none" stroke="#000000" points="8,-185.7 8,-208.7 96,-208.7 96,-185.7 8,-185.7"/>
<text text-anchor="start" x="12.8829" y="-194.8" font-family="Helvetica,sans-Serif" font-weight="bold" font-size="11.00" fill="#000000">categorie</text>
<text text-anchor="start" x="61.5219" y="-193.8" font-family="Helvetica,sans-Serif" font-size="11.00" fill="#000000">[table]</text>
<polygon fill="none" stroke="#000000" points="8,-163.7 8,-185.7 96,-185.7 96,-163.7 8,-163.7"/>
<image xlink:href="../../images/primaryKeys.png" width="11px" height="12px" preserveAspectRatio="xMinYMin meet" x="13" y="-180.7"/>
<text text-anchor="start" x="35" y="-170.8" font-family="Helvetica,sans-Serif" font-size="11.00" fill="#000000">id</text>
<polygon fill="none" stroke="#000000" points="8,-144.7 8,-163.7 96,-163.7 96,-144.7 8,-144.7"/>
<text text-anchor="start" x="11" y="-150.8" font-family="Helvetica,sans-Serif" font-size="11.00" fill="#000000">...</text>
<polygon fill="#ffffff" stroke="transparent" points="8,-125.7 8,-144.7 28,-144.7 28,-125.7 8,-125.7"/>
<polygon fill="none" stroke="#000000" points="8,-125.7 8,-144.7 28,-144.7 28,-125.7 8,-125.7"/>
<text text-anchor="start" x="11" y="-131.8" font-family="Helvetica,sans-Serif" font-size="11.00" fill="#000000"> &#160;</text>
<polygon fill="#ffffff" stroke="transparent" points="28,-125.7 28,-144.7 70,-144.7 70,-125.7 28,-125.7"/>
<polygon fill="none" stroke="#000000" points="28,-125.7 28,-144.7 70,-144.7 70,-125.7 28,-125.7"/>
<text text-anchor="start" x="34.6105" y="-131.8" font-family="Helvetica,sans-Serif" font-size="11.00" fill="#000000">9 rows</text>
<polygon fill="#ffffff" stroke="transparent" points="70,-125.7 70,-144.7 96,-144.7 96,-125.7 70,-125.7"/>
<polygon fill="none" stroke="#000000" points="70,-125.7 70,-144.7 96,-144.7 96,-125.7 70,-125.7"/>
<text text-anchor="start" x="77.4053" y="-131.8" font-family="Helvetica,sans-Serif" font-size="11.00" fill="#000000">1 &gt;</text>
</a>
</g>
</g>
<!-- article&#45;&gt;categorie -->
<g id="edge1" class="edge">
<title>article:w&#45;&gt;categorie:e</title>
<path fill="none" stroke="#000000" d="M132.276,-174.7C120.2815,-174.7 112.8229,-174.7 96,-174.7"/>
<polygon fill="#000000" stroke="#000000" points="139,-174.7001 147,-178.3 143,-174.7 147,-174.7 147,-174.7 147,-174.7 143,-174.7 147,-171.1 139,-174.7001 139,-174.7001"/>
<ellipse fill="none" stroke="#000000" cx="135.8" cy="-174.7001" rx="3.2" ry="3.2"/>
</g>
<!-- commentaire -->
<g id="node3" class="node">
<title>commentaire</title>
<g id="a_node3"><a xlink:href="../../tables/commentaire.html" xlink:title="commentaire" target="_top">
<polygon fill="#ffffff" stroke="transparent" points="400,-115.2 400,-242.2 506,-242.2 506,-115.2 400,-115.2"/>
<polygon fill="#f5f5f5" stroke="transparent" points="400,-218.7 400,-241.7 506,-241.7 506,-218.7 400,-218.7"/>
<polygon fill="none" stroke="#000000" points="400,-218.7 400,-241.7 506,-241.7 506,-218.7 400,-218.7"/>
<text text-anchor="start" x="404.721" y="-227.8" font-family="Helvetica,sans-Serif" font-weight="bold" font-size="11.00" fill="#000000">commentaire</text>
<text text-anchor="start" x="471.5219" y="-226.8" font-family="Helvetica,sans-Serif" font-size="11.00" fill="#000000">[table]</text>
<polygon fill="none" stroke="#000000" points="400,-196.7 400,-218.7 506,-218.7 506,-196.7 400,-196.7"/>
<image xlink:href="../../images/primaryKeys.png" width="11px" height="12px" preserveAspectRatio="xMinYMin meet" x="405" y="-213.7"/>
<text text-anchor="start" x="422" y="-203.8" font-family="Helvetica,sans-Serif" font-size="11.00" fill="#000000">id</text>
<polygon fill="#ffffff" stroke="transparent" points="400,-174.7 400,-196.7 506,-196.7 506,-174.7 400,-174.7"/>
<polygon fill="none" stroke="#000000" points="400,-174.7 400,-196.7 506,-196.7 506,-174.7 400,-174.7"/>
<image xlink:href="../../images/foreignKeys.png" width="11px" height="12px" preserveAspectRatio="xMinYMin meet" x="405" y="-191.7"/>
<text text-anchor="start" x="422" y="-181.8" font-family="Helvetica,sans-Serif" font-size="11.00" fill="#000000">article_id</text>
<polygon fill="#ffffff" stroke="transparent" points="400,-152.7 400,-174.7 506,-174.7 506,-152.7 400,-152.7"/>
<polygon fill="none" stroke="#000000" points="400,-152.7 400,-174.7 506,-174.7 506,-152.7 400,-152.7"/>
<image xlink:href="../../images/foreignKeys.png" width="11px" height="12px" preserveAspectRatio="xMinYMin meet" x="405" y="-169.7"/>
<text text-anchor="start" x="422" y="-159.8" font-family="Helvetica,sans-Serif" font-size="11.00" fill="#000000">utilisateurs_id</text>
<polygon fill="none" stroke="#000000" points="400,-133.7 400,-152.7 506,-152.7 506,-133.7 400,-133.7"/>
<text text-anchor="start" x="403" y="-139.8" font-family="Helvetica,sans-Serif" font-size="11.00" fill="#000000">...</text>
<polygon fill="#ffffff" stroke="transparent" points="400,-114.7 400,-133.7 435,-133.7 435,-114.7 400,-114.7"/>
<polygon fill="none" stroke="#000000" points="400,-114.7 400,-133.7 435,-133.7 435,-114.7 400,-114.7"/>
<text text-anchor="start" x="403" y="-120.8" font-family="Helvetica,sans-Serif" font-size="11.00" fill="#000000">&lt; 2</text>
<polygon fill="#ffffff" stroke="transparent" points="435,-114.7 435,-133.7 486,-133.7 486,-114.7 435,-114.7"/>
<polygon fill="none" stroke="#000000" points="435,-114.7 435,-133.7 486,-133.7 486,-114.7 435,-114.7"/>
<text text-anchor="start" x="444.4956" y="-120.8" font-family="Helvetica,sans-Serif" font-size="11.00" fill="#000000">50 rows</text>
<polygon fill="#ffffff" stroke="transparent" points="486,-114.7 486,-133.7 506,-133.7 506,-114.7 486,-114.7"/>
<polygon fill="none" stroke="#000000" points="486,-114.7 486,-133.7 506,-133.7 506,-114.7 486,-114.7"/>
<text text-anchor="start" x="496.8862" y="-120.8" font-family="Helvetica,sans-Serif" font-size="11.00" fill="#000000"> &#160;</text>
</a>
</g>
</g>
<!-- commentaire&#45;&gt;article -->
<g id="edge2" class="edge">
<title>commentaire:w&#45;&gt;article:e</title>
<path fill="none" stroke="#000000" d="M385.9616,-189.7035C360.698,-208.2249 392.5017,-284.7 349,-284.7"/>
<polygon fill="#000000" stroke="#000000" points="392.3067,-187.894 400.9873,-189.162 396.1534,-186.797 400,-185.7 400,-185.7 400,-185.7 396.1534,-186.797 399.0127,-182.238 392.3067,-187.894 392.3067,-187.894"/>
<ellipse fill="none" stroke="#000000" cx="389.2294" cy="-188.7717" rx="3.2" ry="3.2"/>
</g>
<!-- utilisateur -->
<g id="node4" class="node">
<title>utilisateur</title>
<g id="a_node4"><a xlink:href="../../tables/utilisateur.html" xlink:title="utilisateur" target="_top">
<polygon fill="#ffffff" stroke="transparent" points="203,-38.2 203,-99.2 293,-99.2 293,-38.2 203,-38.2"/>
<polygon fill="#f5f5f5" stroke="transparent" points="203,-75.7 203,-98.7 293,-98.7 293,-75.7 203,-75.7"/>
<polygon fill="none" stroke="#000000" points="203,-75.7 203,-98.7 293,-98.7 293,-75.7 203,-75.7"/>
<text text-anchor="start" x="207.971" y="-84.8" font-family="Helvetica,sans-Serif" font-weight="bold" font-size="11.00" fill="#000000">utilisateur</text>
<text text-anchor="start" x="258.5219" y="-83.8" font-family="Helvetica,sans-Serif" font-size="11.00" fill="#000000">[table]</text>
<polygon fill="none" stroke="#000000" points="203,-56.7 203,-75.7 293,-75.7 293,-56.7 203,-56.7"/>
<text text-anchor="start" x="206" y="-62.8" font-family="Helvetica,sans-Serif" font-size="11.00" fill="#000000">...</text>
<polygon fill="#ffffff" stroke="transparent" points="203,-37.7 203,-56.7 221,-56.7 221,-37.7 203,-37.7"/>
<polygon fill="none" stroke="#000000" points="203,-37.7 203,-56.7 221,-56.7 221,-37.7 203,-37.7"/>
<text text-anchor="start" x="206" y="-43.8" font-family="Helvetica,sans-Serif" font-size="11.00" fill="#000000"> &#160;</text>
<polygon fill="#ffffff" stroke="transparent" points="221,-37.7 221,-56.7 268,-56.7 268,-37.7 221,-37.7"/>
<polygon fill="none" stroke="#000000" points="221,-37.7 221,-56.7 268,-56.7 268,-37.7 221,-37.7"/>
<text text-anchor="start" x="226.4956" y="-43.8" font-family="Helvetica,sans-Serif" font-size="11.00" fill="#000000">50 rows</text>
<polygon fill="#ffffff" stroke="transparent" points="268,-37.7 268,-56.7 293,-56.7 293,-37.7 268,-37.7"/>
<polygon fill="none" stroke="#000000" points="268,-37.7 268,-56.7 293,-56.7 293,-37.7 268,-37.7"/>
<text text-anchor="start" x="274.4053" y="-43.8" font-family="Helvetica,sans-Serif" font-size="11.00" fill="#000000">1 &gt;</text>
</a>
</g>
</g>
<!-- commentaire&#45;&gt;utilisateur -->
<g id="edge3" class="edge">
<title>commentaire:w&#45;&gt;utilisateur:e</title>
<path fill="none" stroke="#000000" d="M385.8465,-159.7707C373.2023,-150.4954 376.1074,-126.8105 359,-110.7 333.154,-86.3602 328.5027,-65.7 293,-65.7"/>
<polygon fill="#000000" stroke="#000000" points="392.2915,-161.5599 399.037,-167.1688 396.1458,-162.63 400,-163.7 400,-163.7 400,-163.7 396.1458,-162.63 400.963,-160.2312 392.2915,-161.5599 392.2915,-161.5599"/>
<ellipse fill="none" stroke="#000000" cx="389.2082" cy="-160.7039" rx="3.2" ry="3.2"/>
</g>
</g>
</svg>
