<?xml version="1.0" encoding="UTF-8" standalone="no"?>
<!DOCTYPE svg PUBLIC "-//W3C//DTD SVG 1.1//EN"
 "http://www.w3.org/Graphics/SVG/1.1/DTD/svg11.dtd">
<!-- Generated by graphviz version 2.40.1 (20161225.0304)
 -->
<!-- Title: largeRelationshipsDiagram Pages: 1 -->
<svg width="407pt" height="397pt"
 viewBox="0.00 0.00 407.00 397.20" xmlns="http://www.w3.org/2000/svg" xmlns:xlink="http://www.w3.org/1999/xlink">
<g id="graph0" class="graph" transform="scale(1 1) rotate(0) translate(4 393.2)">
<title>largeRelationshipsDiagram</title>
<polygon fill="#ffffff" stroke="transparent" points="-4,4 -4,-393.2 403,-393.2 403,4 -4,4"/>
<text text-anchor="middle" x="72.4936" y="-7.3" font-family="Helvetica,sans-Serif" font-size="11.00" fill="#000000">Generated by SchemaSpy</text>
<!-- article -->
<g id="node1" class="node">
<title>article</title>
<g id="a_node1"><a xlink:href="../../tables/article.html" xlink:title="article" target="_top">
<polygon fill="#ffffff" stroke="transparent" points="145,-189.2 145,-385.2 236,-385.2 236,-189.2 145,-189.2"/>
<polygon fill="#f5f5f5" stroke="transparent" points="145.5,-362.2 145.5,-385.2 236.5,-385.2 236.5,-362.2 145.5,-362.2"/>
<polygon fill="none" stroke="#000000" points="145.5,-362.2 145.5,-385.2 236.5,-385.2 236.5,-362.2 145.5,-362.2"/>
<text text-anchor="start" x="150.5" y="-371.3" font-family="Helvetica,sans-Serif" font-weight="bold" font-size="11.00" fill="#000000">article</text>
<text text-anchor="start" x="201.5437" y="-370.3" font-family="Helvetica,sans-Serif" font-size="11.00" fill="#000000">[table]</text>
<polygon fill="none" stroke="#000000" points="145.5,-340.2 145.5,-362.2 236.5,-362.2 236.5,-340.2 145.5,-340.2"/>
<image xlink:href="../../images/primaryKeys.png" width="11px" height="12px" preserveAspectRatio="xMinYMin meet" x="150.5" y="-357.2"/>
<text text-anchor="start" x="165.5" y="-347.3" font-family="Helvetica,sans-Serif" font-size="11.00" fill="#000000">id</text>
<polygon fill="none" stroke="#000000" points="145.5,-318.2 145.5,-340.2 236.5,-340.2 236.5,-318.2 145.5,-318.2"/>
<text text-anchor="start" x="165.5" y="-325.3" font-family="Helvetica,sans-Serif" font-size="11.00" fill="#000000">titre</text>
<polygon fill="none" stroke="#000000" points="145.5,-296.2 145.5,-318.2 236.5,-318.2 236.5,-296.2 145.5,-296.2"/>
<text text-anchor="start" x="165.5" y="-303.3" font-family="Helvetica,sans-Serif" font-size="11.00" fill="#000000">contenu</text>
<polygon fill="none" stroke="#000000" points="145.5,-274.2 145.5,-296.2 236.5,-296.2 236.5,-274.2 145.5,-274.2"/>
<text text-anchor="start" x="165.5" y="-281.3" font-family="Helvetica,sans-Serif" font-size="11.00" fill="#000000">created_at</text>
<polygon fill="none" stroke="#000000" points="145.5,-252.2 145.5,-274.2 236.5,-274.2 236.5,-252.2 145.5,-252.2"/>
<text text-anchor="start" x="165.5" y="-259.3" font-family="Helvetica,sans-Serif" font-size="11.00" fill="#000000">slug</text>
<polygon fill="#ffffff" stroke="transparent" points="145.5,-230.2 145.5,-252.2 236.5,-252.2 236.5,-230.2 145.5,-230.2"/>
<polygon fill="none" stroke="#000000" points="145.5,-230.2 145.5,-252.2 236.5,-252.2 236.5,-230.2 145.5,-230.2"/>
<image xlink:href="../../images/foreignKeys.png" width="11px" height="12px" preserveAspectRatio="xMinYMin meet" x="150.5" y="-247.2"/>
<text text-anchor="start" x="165.5" y="-237.3" font-family="Helvetica,sans-Serif" font-size="11.00" fill="#000000">categorie_id</text>
<polygon fill="none" stroke="#000000" points="145.5,-208.2 145.5,-230.2 236.5,-230.2 236.5,-208.2 145.5,-208.2"/>
<text text-anchor="start" x="165.5" y="-215.3" font-family="Helvetica,sans-Serif" font-size="11.00" fill="#000000">publie</text>
<polygon fill="#ffffff" stroke="transparent" points="145.5,-189.2 145.5,-208.2 168.5,-208.2 168.5,-189.2 145.5,-189.2"/>
<polygon fill="none" stroke="#000000" points="145.5,-189.2 145.5,-208.2 168.5,-208.2 168.5,-189.2 145.5,-189.2"/>
<text text-anchor="start" x="148.5" y="-195.3" font-family="Helvetica,sans-Serif" font-size="11.00" fill="#000000">&lt; 1</text>
<polygon fill="#ffffff" stroke="transparent" points="168.5,-189.2 168.5,-208.2 213.5,-208.2 213.5,-189.2 168.5,-189.2"/>
<polygon fill="none" stroke="#000000" points="168.5,-189.2 168.5,-208.2 213.5,-208.2 213.5,-189.2 168.5,-189.2"/>
<text text-anchor="start" x="171.9956" y="-195.3" font-family="Helvetica,sans-Serif" font-size="11.00" fill="#000000">57 rows</text>
<polygon fill="#ffffff" stroke="transparent" points="213.5,-189.2 213.5,-208.2 236.5,-208.2 236.5,-189.2 213.5,-189.2"/>
<polygon fill="none" stroke="#000000" points="213.5,-189.2 213.5,-208.2 236.5,-208.2 236.5,-189.2 213.5,-189.2"/>
<text text-anchor="start" x="217.9053" y="-195.3" font-family="Helvetica,sans-Serif" font-size="11.00" fill="#000000">1 &gt;</text>
</a>
</g>
</g>
<!-- categorie -->
<g id="node2" class="node">
<title>categorie</title>
<g id="a_node2"><a xlink:href="../../tables/categorie.html" xlink:title="categorie" target="_top">
<polygon fill="#ffffff" stroke="transparent" points="8,-167.2 8,-275.2 96,-275.2 96,-167.2 8,-167.2"/>
<polygon fill="#f5f5f5" stroke="transparent" points="8,-252.2 8,-275.2 96,-275.2 96,-252.2 8,-252.2"/>
<polygon fill="none" stroke="#000000" points="8,-252.2 8,-275.2 96,-275.2 96,-252.2 8,-252.2"/>
<text text-anchor="start" x="12.8829" y="-261.3" font-family="Helvetica,sans-Serif" font-weight="bold" font-size="11.00" fill="#000000">categorie</text>
<text text-anchor="start" x="61.5219" y="-260.3" font-family="Helvetica,sans-Serif" font-size="11.00" fill="#000000">[table]</text>
<polygon fill="none" stroke="#000000" points="8,-230.2 8,-252.2 96,-252.2 96,-230.2 8,-230.2"/>
<image xlink:href="../../images/primaryKeys.png" width="11px" height="12px" preserveAspectRatio="xMinYMin meet" x="13" y="-247.2"/>
<text text-anchor="start" x="35" y="-237.3" font-family="Helvetica,sans-Serif" font-size="11.00" fill="#000000">id</text>
<polygon fill="none" stroke="#000000" points="8,-208.2 8,-230.2 96,-230.2 96,-208.2 8,-208.2"/>
<text text-anchor="start" x="35" y="-215.3" font-family="Helvetica,sans-Serif" font-size="11.00" fill="#000000">titre</text>
<polygon fill="none" stroke="#000000" points="8,-186.2 8,-208.2 96,-208.2 96,-186.2 8,-186.2"/>
<text text-anchor="start" x="35" y="-193.3" font-family="Helvetica,sans-Serif" font-size="11.00" fill="#000000">slug</text>
<polygon fill="#ffffff" stroke="transparent" points="8,-167.2 8,-186.2 28,-186.2 28,-167.2 8,-167.2"/>
<polygon fill="none" stroke="#000000" points="8,-167.2 8,-186.2 28,-186.2 28,-167.2 8,-167.2"/>
<text text-anchor="start" x="11" y="-173.3" font-family="Helvetica,sans-Serif" font-size="11.00" fill="#000000"> &#160;</text>
<polygon fill="#ffffff" stroke="transparent" points="28,-167.2 28,-186.2 70,-186.2 70,-167.2 28,-167.2"/>
<polygon fill="none" stroke="#000000" points="28,-167.2 28,-186.2 70,-186.2 70,-167.2 28,-167.2"/>
<text text-anchor="start" x="34.6105" y="-173.3" font-family="Helvetica,sans-Serif" font-size="11.00" fill="#000000">9 rows</text>
<polygon fill="#ffffff" stroke="transparent" points="70,-167.2 70,-186.2 96,-186.2 96,-167.2 70,-167.2"/>
<polygon fill="none" stroke="#000000" points="70,-167.2 70,-186.2 96,-186.2 96,-167.2 70,-167.2"/>
<text text-anchor="start" x="77.4053" y="-173.3" font-family="Helvetica,sans-Serif" font-size="11.00" fill="#000000">1 &gt;</text>
</a>
</g>
</g>
<!-- article&#45;&gt;categorie -->
<g id="edge1" class="edge">
<title>article:w&#45;&gt;categorie:e</title>
<path fill="none" stroke="#000000" d="M130.8428,-241.2C119.4139,-241.2 112.1563,-241.2 96,-241.2"/>
<polygon fill="#000000" stroke="#000000" points="137.5,-241.2001 145.5,-244.8 141.5,-241.2 145.5,-241.2 145.5,-241.2 145.5,-241.2 141.5,-241.2 145.5,-237.6 137.5,-241.2001 137.5,-241.2001"/>
<ellipse fill="none" stroke="#000000" cx="134.3" cy="-241.2001" rx="3.2" ry="3.2"/>
</g>
<!-- commentaire -->
<g id="node3" class="node">
<title>commentaire</title>
<g id="a_node3"><a xlink:href="../../tables/commentaire.html" xlink:title="commentaire" target="_top">
<polygon fill="#ffffff" stroke="transparent" points="285,-201.2 285,-353.2 391,-353.2 391,-201.2 285,-201.2"/>
<polygon fill="#f5f5f5" stroke="transparent" points="285,-330.2 285,-353.2 391,-353.2 391,-330.2 285,-330.2"/>
<polygon fill="none" stroke="#000000" points="285,-330.2 285,-353.2 391,-353.2 391,-330.2 285,-330.2"/>
<text text-anchor="start" x="289.721" y="-339.3" font-family="Helvetica,sans-Serif" font-weight="bold" font-size="11.00" fill="#000000">commentaire</text>
<text text-anchor="start" x="356.5219" y="-338.3" font-family="Helvetica,sans-Serif" font-size="11.00" fill="#000000">[table]</text>
<polygon fill="none" stroke="#000000" points="285,-308.2 285,-330.2 391,-330.2 391,-308.2 285,-308.2"/>
<image xlink:href="../../images/primaryKeys.png" width="11px" height="12px" preserveAspectRatio="xMinYMin meet" x="290" y="-325.2"/>
<text text-anchor="start" x="307" y="-315.3" font-family="Helvetica,sans-Serif" font-size="11.00" fill="#000000">id</text>
<polygon fill="none" stroke="#000000" points="285,-286.2 285,-308.2 391,-308.2 391,-286.2 285,-286.2"/>
<text text-anchor="start" x="307" y="-293.3" font-family="Helvetica,sans-Serif" font-size="11.00" fill="#000000">contenu</text>
<polygon fill="none" stroke="#000000" points="285,-264.2 285,-286.2 391,-286.2 391,-264.2 285,-264.2"/>
<text text-anchor="start" x="307" y="-271.3" font-family="Helvetica,sans-Serif" font-size="11.00" fill="#000000">created_at</text>
<polygon fill="#ffffff" stroke="transparent" points="285,-242.2 285,-264.2 391,-264.2 391,-242.2 285,-242.2"/>
<polygon fill="none" stroke="#000000" points="285,-242.2 285,-264.2 391,-264.2 391,-242.2 285,-242.2"/>
<image xlink:href="../../images/foreignKeys.png" width="11px" height="12px" preserveAspectRatio="xMinYMin meet" x="290" y="-259.2"/>
<text text-anchor="start" x="307" y="-249.3" font-family="Helvetica,sans-Serif" font-size="11.00" fill="#000000">article_id</text>
<polygon fill="#ffffff" stroke="transparent" points="285,-220.2 285,-242.2 391,-242.2 391,-220.2 285,-220.2"/>
<polygon fill="none" stroke="#000000" points="285,-220.2 285,-242.2 391,-242.2 391,-220.2 285,-220.2"/>
<image xlink:href="../../images/foreignKeys.png" width="11px" height="12px" preserveAspectRatio="xMinYMin meet" x="290" y="-237.2"/>
<text text-anchor="start" x="307" y="-227.3" font-family="Helvetica,sans-Serif" font-size="11.00" fill="#000000">utilisateurs_id</text>
<polygon fill="#ffffff" stroke="transparent" points="285,-201.2 285,-220.2 320,-220.2 320,-201.2 285,-201.2"/>
<polygon fill="none" stroke="#000000" points="285,-201.2 285,-220.2 320,-220.2 320,-201.2 285,-201.2"/>
<text text-anchor="start" x="288" y="-207.3" font-family="Helvetica,sans-Serif" font-size="11.00" fill="#000000">&lt; 2</text>
<polygon fill="#ffffff" stroke="transparent" points="320,-201.2 320,-220.2 371,-220.2 371,-201.2 320,-201.2"/>
<polygon fill="none" stroke="#000000" points="320,-201.2 320,-220.2 371,-220.2 371,-201.2 320,-201.2"/>
<text text-anchor="start" x="329.4956" y="-207.3" font-family="Helvetica,sans-Serif" font-size="11.00" fill="#000000">50 rows</text>
<polygon fill="#ffffff" stroke="transparent" points="371,-201.2 371,-220.2 391,-220.2 391,-201.2 371,-201.2"/>
<polygon fill="none" stroke="#000000" points="371,-201.2 371,-220.2 391,-220.2 391,-201.2 371,-201.2"/>
<text text-anchor="start" x="381.8862" y="-207.3" font-family="Helvetica,sans-Serif" font-size="11.00" fill="#000000"> &#160;</text>
</a>
</g>
</g>
<!-- commentaire&#45;&gt;article -->
<g id="edge2" class="edge">
<title>commentaire:w&#45;&gt;article:e</title>
<path fill="none" stroke="#000000" d="M270.9564,-257.4109C247.056,-276.1688 279.0229,-351.2 236.5,-351.2"/>
<polygon fill="#000000" stroke="#000000" points="277.3371,-255.4978 286.034,-256.6483 281.1685,-254.3489 285,-253.2 285,-253.2 285,-253.2 281.1685,-254.3489 283.966,-249.7517 277.3371,-255.4978 277.3371,-255.4978"/>
<ellipse fill="none" stroke="#000000" cx="274.2719" cy="-256.4169" rx="3.2" ry="3.2"/>
</g>
<!-- utilisateur -->
<g id="node4" class="node">
<title>utilisateur</title>
<g id="a_node4"><a xlink:href="../../tables/utilisateur.html" xlink:title="utilisateur" target="_top">
<polygon fill="#ffffff" stroke="transparent" points="145.5,-38.2 145.5,-168.2 235.5,-168.2 235.5,-38.2 145.5,-38.2"/>
<polygon fill="#f5f5f5" stroke="transparent" points="145.5,-145.2 145.5,-168.2 235.5,-168.2 235.5,-145.2 145.5,-145.2"/>
<polygon fill="none" stroke="#000000" points="145.5,-145.2 145.5,-168.2 235.5,-168.2 235.5,-145.2 145.5,-145.2"/>
<text text-anchor="start" x="150.471" y="-154.3" font-family="Helvetica,sans-Serif" font-weight="bold" font-size="11.00" fill="#000000">utilisateur</text>
<text text-anchor="start" x="201.0219" y="-153.3" font-family="Helvetica,sans-Serif" font-size="11.00" fill="#000000">[table]</text>
<polygon fill="none" stroke="#000000" points="145.5,-123.2 145.5,-145.2 235.5,-145.2 235.5,-123.2 145.5,-123.2"/>
<image xlink:href="../../images/primaryKeys.png" width="11px" height="12px" preserveAspectRatio="xMinYMin meet" x="150.5" y="-140.2"/>
<text text-anchor="start" x="171.5" y="-130.3" font-family="Helvetica,sans-Serif" font-size="11.00" fill="#000000">id</text>
<polygon fill="none" stroke="#000000" points="145.5,-101.2 145.5,-123.2 235.5,-123.2 235.5,-101.2 145.5,-101.2"/>
<text text-anchor="start" x="171.5" y="-108.3" font-family="Helvetica,sans-Serif" font-size="11.00" fill="#000000">prenom</text>
<polygon fill="none" stroke="#000000" points="145.5,-79.2 145.5,-101.2 235.5,-101.2 235.5,-79.2 145.5,-79.2"/>
<text text-anchor="start" x="171.5" y="-86.3" font-family="Helvetica,sans-Serif" font-size="11.00" fill="#000000">nom</text>
<polygon fill="none" stroke="#000000" points="145.5,-57.2 145.5,-79.2 235.5,-79.2 235.5,-57.2 145.5,-57.2"/>
<text text-anchor="start" x="171.5" y="-64.3" font-family="Helvetica,sans-Serif" font-size="11.00" fill="#000000">pseudo</text>
<polygon fill="#ffffff" stroke="transparent" points="145.5,-38.2 145.5,-57.2 163.5,-57.2 163.5,-38.2 145.5,-38.2"/>
<polygon fill="none" stroke="#000000" points="145.5,-38.2 145.5,-57.2 163.5,-57.2 163.5,-38.2 145.5,-38.2"/>
<text text-anchor="start" x="148.5" y="-44.3" font-family="Helvetica,sans-Serif" font-size="11.00" fill="#000000"> &#160;</text>
<polygon fill="#ffffff" stroke="transparent" points="163.5,-38.2 163.5,-57.2 210.5,-57.2 210.5,-38.2 163.5,-38.2"/>
<polygon fill="none" stroke="#000000" points="163.5,-38.2 163.5,-57.2 210.5,-57.2 210.5,-38.2 163.5,-38.2"/>
<text text-anchor="start" x="168.9956" y="-44.3" font-family="Helvetica,sans-Serif" font-size="11.00" fill="#000000">50 rows</text>
<polygon fill="#ffffff" stroke="transparent" points="210.5,-38.2 210.5,-57.2 235.5,-57.2 235.5,-38.2 210.5,-38.2"/>
<polygon fill="none" stroke="#000000" points="210.5,-38.2 210.5,-57.2 235.5,-57.2 235.5,-38.2 210.5,-38.2"/>
<text text-anchor="start" x="216.9053" y="-44.3" font-family="Helvetica,sans-Serif" font-size="11.00" fill="#000000">1 &gt;</text>
</a>
</g>
</g>
<!-- commentaire&#45;&gt;utilisateur -->
<g id="edge3" class="edge">
<title>commentaire:w&#45;&gt;utilisateur:e</title>
<path fill="none" stroke="#000000" d="M270.9621,-227.032C246.9296,-208.4656 277.8501,-134.2 235.5,-134.2"/>
<polygon fill="#000000" stroke="#000000" points="277.3309,-228.9229 283.9753,-234.6511 281.1654,-230.0615 285,-231.2 285,-231.2 285,-231.2 281.1654,-230.0615 286.0247,-227.7489 277.3309,-228.9229 277.3309,-228.9229"/>
<ellipse fill="none" stroke="#000000" cx="274.2632" cy="-228.0121" rx="3.2" ry="3.2"/>
</g>
</g>
</svg>
